<?xml version="1.0" standalone="no"?><!DOCTYPE svg PUBLIC "-//W3C//DTD SVG 1.1//EN" "http://www.w3.org/Graphics/SVG/1.1/DTD/svg11.dtd"><svg t="1714550021763" class="icon" viewBox="0 0 1024 1024" version="1.1" xmlns="http://www.w3.org/2000/svg" p-id="13827" xmlns:xlink="http://www.w3.org/1999/xlink" width="256" height="256"><path d="M103.148983 912.896C-26.313874 799.012571-42.222446 204.873143 103.148983 87.771429 248.410697-29.257143 813.036983-29.257143 926.518126 87.771429c113.481143 117.065143 129.389714 628.370286 0 793.234285-129.389714 164.864-694.016 145.737143-823.442286 31.817143zM686.49984 335.945143q31.817143 25.856 78.336 25.856a43.885714 43.885714 0 0 0 0-87.771429q-18.651429 0-27.867429-11.081143-13.860571-16.64-18.066285-57.124571-2.048-19.931429-17.846857-32.475429-10.971429-8.704-25.051429-10.386285-15.250286-1.828571-28.598857 5.266285-20.077714 10.569143-24.32 32.804572l-54.381714 282.697143a182.857143 182.857143 0 1 0 55.661714 174.701714 44.617143 44.617143 0 0 0 0.731428-3.072l61.403429-319.414857z" fill="#4CC2FF" p-id="13828"></path></svg>