<?xml version="1.0" standalone="no"?><!DOCTYPE svg PUBLIC "-//W3C//DTD SVG 1.1//EN" "http://www.w3.org/Graphics/SVG/1.1/DTD/svg11.dtd"><svg t="1715286027286" class="icon" viewBox="0 0 1024 1024" version="1.1" xmlns="http://www.w3.org/2000/svg" p-id="4318" xmlns:xlink="http://www.w3.org/1999/xlink" width="256" height="256"><path d="M845.305073 308.485641c0-33.251508-26.955883-60.207391-60.20739-60.207391s-60.207391 26.955883-60.207391 60.207391c0 13.9596 4.763074 26.797762 12.735992 37.008692L615.219185 653.267215l-156.98925-309.879533a59.922774 59.922774 0 0 0 11.164518-34.903258c0-33.251508-26.955883-60.207391-60.207391-60.20739s-60.207391 26.955883-60.20739 60.20739c0 13.986359 4.782535 26.847631 12.783428 37.069508L233.953148 666.908142c-30.934436 2.517764-55.258221 28.405725-55.258221 59.988455 0 33.251508 26.955883 60.207391 60.20739 60.20739s60.207391-26.955883 60.207391-60.20739a59.909394 59.909394 0 0 0-10.635423-34.158876l122.810914-308.788502L567.672375 692.640416a59.910611 59.910611 0 0 0-10.704752 34.256181c0 33.251508 26.955883 60.207391 60.20739 60.20739s60.207391-26.955883 60.207391-60.20739a59.931288 59.931288 0 0 0-12.203248-36.332424l128.247824-322.45862c29.307012-4.057613 51.878093-29.196327 51.878093-59.619912z" p-id="4319"></path></svg>