<?xml version="1.0" standalone="no"?><!DOCTYPE svg PUBLIC "-//W3C//DTD SVG 1.1//EN" "http://www.w3.org/Graphics/SVG/1.1/DTD/svg11.dtd"><svg t="1714584109903" class="icon" viewBox="0 0 1024 1024" version="1.1" xmlns="http://www.w3.org/2000/svg" p-id="5503" xmlns:xlink="http://www.w3.org/1999/xlink" width="256" height="256"><path d="M138.666667 554.666667a32 32 0 0 0 64 0h-64zM853.333333 298.666667v32a32 32 0 0 0 22.613334-54.613334L853.333333 298.666667z m-105.386666-150.613334a32 32 0 1 0-45.226667 45.226667l45.226667-45.226667zM202.666667 554.666667v-42.666667h-64v42.666667h64zM384 330.666667h469.333333v-64H384v64z m491.946667-54.613334l-128-128-45.226667 45.226667 128 128 45.226667-45.226667zM202.666667 512A181.333333 181.333333 0 0 1 384 330.666667v-64A245.333333 245.333333 0 0 0 138.666667 512h64zM885.333333 469.333333a32 32 0 0 0-64 0h64zM170.666667 725.333333v-32a32 32 0 0 0-22.613334 54.613334L170.666667 725.333333z m105.386666 150.613334a32 32 0 1 0 45.226667-45.226667l-45.226667 45.226667zM821.333333 469.333333v42.666667h64v-42.666667h-64zM640 693.333333H170.666667v64h469.333333v-64zM148.053333 747.946667l128 128 45.226667-45.226667-128-128-45.226667 45.226667zM821.333333 512A181.333333 181.333333 0 0 1 640 693.333333v64A245.333333 245.333333 0 0 0 885.333333 512h-64z" p-id="5504"></path></svg>