<?xml version="1.0" standalone="no"?><!DOCTYPE svg PUBLIC "-//W3C//DTD SVG 1.1//EN" "http://www.w3.org/Graphics/SVG/1.1/DTD/svg11.dtd"><svg t="1714586178393" class="icon" viewBox="0 0 1024 1024" version="1.1" xmlns="http://www.w3.org/2000/svg" p-id="16638" xmlns:xlink="http://www.w3.org/1999/xlink" width="256" height="256"><path d="M438.23420952 956.67880634a29.07073016 29.07073016 0 0 1-26.8224-17.80002539L113.40190477 232.85282539a28.92210794 28.92210794 0 0 1-0.15420954-22.27880634 28.93886984 28.93886984 0 0 1 15.64779683-15.86011428 29.05396825 29.05396825 0 0 1 38.13333333 15.47123809l0.30841906 0.67494603 297.72495237 705.37894603a29.13889523 29.13889523 0 0 1-15.47682539 38.13892063 28.82488889 28.82488889 0 0 1-11.3288127 2.2952635h-0.02234921z M342.35499682 717.54118095a28.95004445 28.95004445 0 0 1-20.59144127-8.53627936 28.92769523 28.92769523 0 0 1-8.52510475-20.59702857c0-3.31326984 0.56096508-6.57401905 1.66501586-9.68614604 1.28731429-3.65074286 32.64101587-89.48286984 135.71220318-117.6663365 21.06524445-5.76162539 42.84678095-8.55974603 66.59616508-8.55974603 43.73516191 0 86.78867302 9.86940952 124.77226667 18.56660317 37.61818413 8.61561905 71.11740952 15.75060318 100.14679364 15.75060318 36.5152508 0 65.83740952-11.15113651 91.44624763-36.14201905l1.93320634-1.88850794 0.07486985-2.69419683-0.16650159-345.6975238-10.65274921 5.53142857c-29.1679492 16.39314286-64.24614603 28.83606349-104.27245714 36.98905396a229.19893334 229.19893334 0 0 1-45.51974603 4.69780318c-46.74895238 0-85.91258413-15.24774603-123.78219683-29.98593016-41.6119873-16.1864127-84.60292063-32.90920634-143.35563174-32.90920635-4.74920634 0-9.59451429 0.10839366-14.54933333 0.33747301-62.80909206 2.89980952-118.03174603 31.11233016-162.4128 53.78113016-33.07570794 16.89488254-59.18852063 30.23735873-82.88091429 30.23735874a29.14448254 29.14448254 0 0 1-29.10984127-29.10537143 29.13889523 29.13889523 0 0 1 29.10425397-29.10984127c9.21122539-0.12627302 30.01498413-10.38455873 56.25853968-23.7840254 46.90427937-23.96170159 110.96045714-56.68205714 186.35215239-60.16629842a380.31867937 380.31867937 0 0 1 17.79332063-0.42351745c69.10821587 0 119.38275555 19.56673016 163.74593016 36.83484445 36.01574603 14.01183492 66.98057143 26.06029206 102.8544 26.06029205 11.20812698 0 22.28998095-1.14427937 33.88139682-3.50659048 94.61536508-19.27619048 125.6584127-59.98862223 128.8856381-64.57244443l0.27489524-0.3888762 0.21231745-0.42351746c4.82742857-9.46824127 14.16045714-15.12706032 24.95065397-15.12706031 2.33437461 0 4.69668571 0.26819048 7.03106031 0.80680635 12.75357461 2.91768889 22.23969523 15.11588571 22.33691429 29.00144762 0 26.89056508 0.10280634 426.72457143 0.10280635 426.72457143s-2.22598095 13.11339682-6.67123809 18.13191111c-39.32342857 44.27154286-86.31822223 64.89092063-144.41386666 64.89762539-37.94895238 0-75.85991111-8.67931429-112.52266668-17.06697143-38.65295238-8.85699048-75.09333334-17.20441905-111.51583492-17.20441904-18.50290794 0-35.37544127 2.15669841-51.56632381 6.58519365-73.42273016 20.07629206-95.94290794 80.25376508-96.15969523 80.86054603a29.19029841 29.19029841 0 0 1-27.46270477 19.4471619z" fill="#000000" p-id="16640"></path></svg>