<?xml version="1.0" standalone="no"?><!DOCTYPE svg PUBLIC "-//W3C//DTD SVG 1.1//EN" "http://www.w3.org/Graphics/SVG/1.1/DTD/svg11.dtd"><svg t="1714585509492" class="icon" viewBox="0 0 1024 1024" version="1.1" xmlns="http://www.w3.org/2000/svg" p-id="10342" xmlns:xlink="http://www.w3.org/1999/xlink" width="256" height="256"><path d="M784.1792 105.728H239.9232c-73.0624 0-132.5056 59.4432-132.5056 132.5056v544.3072c0 73.0624 59.4432 132.5056 132.5056 132.5056h544.3072c73.0624 0 132.5056-59.4432 132.5056-132.5056V238.2336c-0.0512-73.0624-59.4944-132.5056-132.5568-132.5056z m71.0656 676.8128c0 39.168-31.8976 71.0656-71.0656 71.0656H239.9232c-39.168 0-71.0656-31.8976-71.0656-71.0656V238.2336c0-39.168 31.8976-71.0656 71.0656-71.0656h544.3072c39.168 0 71.0656 31.8976 71.0656 71.0656v544.3072z M678.656 249.7024H453.9392c-16.9472 0-30.72 13.7728-30.72 30.72s13.7728 30.72 30.72 30.72h224.6656c9.0624 0 16.6912 9.9328 16.6912 21.6576v380.928c0 6.2976-5.12 11.4176-11.4176 11.4176h-24.0128c-16.9472 0-30.72 13.7728-30.72 30.72s13.7728 30.72 30.72 30.72h24.0128c40.1408 0 72.8576-32.6656 72.8576-72.8576V332.8c0.0512-45.8752-35.0208-83.0976-78.08-83.0976z M473.344 440.9344h140.544c16.9472 0 30.72-13.7728 30.72-30.72s-13.7728-30.72-30.72-30.72H473.344c-16.9472 0-30.72 13.7728-30.72 30.72s13.7728 30.72 30.72 30.72zM644.3008 661.8112V505.7536c0-16.9472-13.7728-30.72-30.72-30.72H479.2832c-16.9472 0-30.72 13.7728-30.72 30.72v156.0576c0 16.9472 13.7728 30.72 30.72 30.72h134.2976c16.9984 0 30.72-13.7728 30.72-30.72z m-61.44-30.72H510.0032v-94.6176h72.8576v94.6176zM290.816 340.8384a30.6176 30.6176 0 0 0 22.3232 9.6256c7.5776 0 15.1552-2.7648 21.0944-8.3968a30.68416 30.68416 0 0 0 1.2288-43.4176l-32.0512-33.9456a30.68416 30.68416 0 0 0-43.4176-1.2288 30.68416 30.68416 0 0 0-1.2288 43.4176l32.0512 33.9456zM375.0912 661.0944l-22.3232 12.1344 34.8672-256.6144c1.1776-8.8064-1.4848-17.664-7.3216-24.32s-14.2848-10.496-23.1424-10.496h-83.968c-16.9472 0-30.72 13.7728-30.72 30.72s13.7728 30.72 30.72 30.72h48.8448l-38.2976 281.7536c-1.536 11.4688 3.4304 22.8352 12.9536 29.44 5.2224 3.6352 11.3152 5.4272 17.4592 5.4272 5.0176 0 10.0352-1.2288 14.6432-3.6864l75.5712-40.96c14.8992-8.0896 20.48-26.7264 12.3904-41.6256s-26.7264-20.5312-41.6768-12.4928z" fill="#000000" p-id="10345"></path></svg>