<?xml version="1.0" standalone="no"?><!DOCTYPE svg PUBLIC "-//W3C//DTD SVG 1.1//EN" "http://www.w3.org/Graphics/SVG/1.1/DTD/svg11.dtd"><svg t="1715285230353" class="icon" viewBox="0 0 1024 1024" version="1.1" xmlns="http://www.w3.org/2000/svg" p-id="13206" xmlns:xlink="http://www.w3.org/1999/xlink" width="256" height="256"><path d="M160 64h640a32 32 0 1 1 0 64h-640a32 32 0 0 1 0-64z m0 512h640a32 32 0 1 1 0 64h-640a32 32 0 0 1 0-64z m0 256h640a32 32 0 1 1 0 64h-640a32 32 0 1 1 0-64z m825.984-362.176a32 32 0 0 1-38.72 50.944l-226.816-172.288a32 32 0 0 1 1.088-51.712l226.752-157.76a32 32 0 1 1 36.608 52.544l-190.72 132.608 191.808 145.664z" fill="#000000" p-id="13207"></path></svg>