<?xml version="1.0" standalone="no"?><!DOCTYPE svg PUBLIC "-//W3C//DTD SVG 1.1//EN" "http://www.w3.org/Graphics/SVG/1.1/DTD/svg11.dtd"><svg t="1714755573603" class="icon" viewBox="0 0 1024 1024" version="1.1" xmlns="http://www.w3.org/2000/svg" p-id="7868" xmlns:xlink="http://www.w3.org/1999/xlink" width="256" height="256"><path d="M647.509333 217.6l-85.902222 0.398222-63.601778-57.799111a79.644444 79.644444 0 0 0-129.479111 34.702222l-26.168889 81.863111-74.638222 42.552889a79.644444 79.644444 0 0 0-6.997333 133.859556l69.802666 50.176 17.408 84.195555a79.644444 79.644444 0 0 0 125.155556 48.014223l45.283556-33.28 72.078222 268.856889a28.444444 28.444444 0 1 0 54.954666-14.791112l-71.907555-268.231111 54.272 5.973334a79.644444 79.644444 0 0 0 84.366222-104.106667l-26.965333-81.635556 35.328-78.392888a79.644444 79.644444 0 0 0-72.988445-112.355556zM422.741333 212.195556a22.755556 22.755556 0 0 1 36.977778-9.955556L533.048889 269.084444a22.755556 22.755556 0 0 0 15.473778 5.916445l99.214222-0.455111a22.755556 22.755556 0 0 1 20.878222 32.085333l-40.846222 90.453333a22.755556 22.755556 0 0 0-0.853333 16.497778l31.118222 94.264889a22.755556 22.755556 0 0 1-24.064 29.752889L535.324444 526.677333a22.755556 22.755556 0 0 0-15.928888 4.266667l-80.042667 58.766222a22.755556 22.755556 0 0 1-35.783111-13.710222l-20.138667-97.223111a22.755556 22.755556 0 0 0-8.988444-13.824L293.888 406.983111a22.755556 22.755556 0 0 1 2.048-38.229333l86.186667-49.208889a22.755556 22.755556 0 0 0 10.410666-12.8l30.151111-94.549333z m-100.693333 518.371555a36.636444 36.636444 0 0 0-67.015111-29.696 36.636444 36.636444 0 0 1-48.355556 18.659556 36.636444 36.636444 0 0 0-29.696 67.015111 36.636444 36.636444 0 0 1 18.659556 48.355555 36.636444 36.636444 0 0 0 67.015111 29.696 36.636444 36.636444 0 0 1 48.355556-18.659555 36.636444 36.636444 0 1 0 29.696-67.015111 36.636444 36.636444 0 0 1-18.659556-48.355556z m666.851556-246.613333a28.444444 28.444444 0 0 1-36.636445 16.611555 28.444444 28.444444 0 0 0-36.636444 16.611556 28.444444 28.444444 0 0 1-53.248-20.024889 28.444444 28.444444 0 0 0-16.611556-36.636444 28.444444 28.444444 0 0 1 20.024889-53.248 28.444444 28.444444 0 0 0 36.693333-16.611556 28.444444 28.444444 0 1 1 53.191111 20.024889 28.444444 28.444444 0 0 0 16.611556 36.636444 28.444444 28.444444 0 0 1 16.611556 36.636445z" p-id="7869"></path></svg>