<?xml version="1.0" standalone="no"?><!DOCTYPE svg PUBLIC "-//W3C//DTD SVG 1.1//EN" "http://www.w3.org/Graphics/SVG/1.1/DTD/svg11.dtd"><svg t="1714584159896" class="icon" viewBox="0 0 1024 1024" version="1.1" xmlns="http://www.w3.org/2000/svg" p-id="9048" xmlns:xlink="http://www.w3.org/1999/xlink" width="256" height="256"><path d="M830.6 732.8H287.3c-24.4 0-47.5-9.6-65-27-17.4-17.4-27-40.5-27-65V505.6l20.1 20.1c10.9 10.9 28.7 10.9 39.6 0 10.9-10.9 10.9-28.7 0-39.6l-66.5-66.5c-11.7-11.7-30.7-11.7-42.4 0l-66.5 66.5c-10.9 10.9-10.9 28.7 0 39.6 10.9 10.9 28.7 10.9 39.6 0l20.1-20.1v135.2c0 81.7 66.3 148 148 148h543.3c15.5 0 28-12.5 28-28 0-15.4-12.5-28-28-28zM946.3 499.1c-10.9-10.9-28.7-10.9-39.6 0l-20.1 20.1V387c0-81.7-66.3-148-148-148H195.3c-15.5 0-28 12.5-28 28s12.5 28 28 28h543.3c24.4 0 47.5 9.6 65 27 17.4 17.4 27 40.5 27 65v132.2l-20.1-20.1c-10.9-10.9-28.7-10.9-39.6 0-10.9 10.9-10.9 28.7 0 39.6l66.5 66.5c11.7 11.7 30.7 11.7 42.4 0l66.5-66.5c10.9-10.9 10.9-28.6 0-39.6z" fill="" p-id="9049"></path></svg>